<svg xmlns="http://www.w3.org/2000/svg" xmlns:xlink="http://www.w3.org/1999/xlink" xmlns:lucid="lucid" width="1241" height="522.79"><g transform="translate(-299.5 -113.71430880418961)" lucid:page-tab-id="0_0"><path d="M0 0h2000v1000H0z" fill="#fff"/><path d="M1059.9 222.2h68.1a12 12 0 0 1 12 12V384a12 12 0 0 0 12 12h67.5" stroke="#333" fill="none"/><path d="M1040.72 212.2l20 10-20 10" stroke="#333" fill="#fff" fill-opacity="0"/><path d="M1040.72 222.2h20M1219.5 386v20M1239.5 396h-20" stroke="#333" fill="#fff"/><path d="M760 139.2a5 5 0 0 1 5-5h270a5 5 0 0 1 5 5v222a5 5 0 0 1-5 5H765a5 5 0 0 1-5-5z" fill="#fff"/><path d="M760 174.2v-35a5 5 0 0 1 5-5h270a5 5 0 0 1 5 5v35" fill="#dedeff"/><path d="M760 139.2a5 5 0 0 1 5-5h270a5 5 0 0 1 5 5v222a5 5 0 0 1-5 5H765a5 5 0 0 1-5-5zM760 174.2h280M900 174.2v192" stroke="#282c33" fill="none"/><use xlink:href="#a" transform="matrix(1,0,0,1,770,134.2143088041896) translate(0 23.6)"/><use xlink:href="#b" transform="matrix(1,0,0,1,765,176.7143088041896) translate(0 17.1)"/><use xlink:href="#c" transform="matrix(1,0,0,1,905,176.7143088041896) translate(0 17.1)"/><use xlink:href="#d" transform="matrix(1,0,0,1,765,208.7143088041896) translate(0 17.1)"/><use xlink:href="#e" transform="matrix(1,0,0,1,905,208.7143088041896) translate(0 17.1)"/><use xlink:href="#f" transform="matrix(1,0,0,1,765,240.7143088041896) translate(0 17.1)"/><use xlink:href="#g" transform="matrix(1,0,0,1,905,240.7143088041896) translate(0 17.1)"/><use xlink:href="#h" transform="matrix(1,0,0,1,765,272.7143088041896) translate(0 17.1)"/><use xlink:href="#i" transform="matrix(1,0,0,1,905,272.7143088041896) translate(0 17.1)"/><use xlink:href="#j" transform="matrix(1,0,0,1,765,304.7143088041896) translate(0 17.1)"/><use xlink:href="#g" transform="matrix(1,0,0,1,905,304.7143088041896) translate(0 17.1)"/><use xlink:href="#k" transform="matrix(1,0,0,1,765,336.7143088041896) translate(0 17.1)"/><use xlink:href="#i" transform="matrix(1,0,0,1,905,336.7143088041896) translate(0 17.1)"/><path d="M1240 345a5 5 0 0 1 5-5h270a5 5 0 0 1 5 5v126a5 5 0 0 1-5 5h-270a5 5 0 0 1-5-5z" fill="#fff"/><path d="M1240 380v-35a5 5 0 0 1 5-5h270a5 5 0 0 1 5 5v35" fill="#dedeff"/><path d="M1240 345a5 5 0 0 1 5-5h270a5 5 0 0 1 5 5v126a5 5 0 0 1-5 5h-270a5 5 0 0 1-5-5zM1240 380h280M1380 380v96" stroke="#282c33" fill="none"/><use xlink:href="#l" transform="matrix(1,0,0,1,1250,340) translate(0 23.6)"/><use xlink:href="#b" transform="matrix(1,0,0,1,1245,382.5) translate(0 17.1)"/><use xlink:href="#c" transform="matrix(1,0,0,1,1385,382.5) translate(0 17.1)"/><use xlink:href="#m" transform="matrix(1,0,0,1,1245,414.5) translate(0 17.1)"/><use xlink:href="#i" transform="matrix(1,0,0,1,1385,414.5) translate(0 17.1)"/><use xlink:href="#n" transform="matrix(1,0,0,1,1245,446.5) translate(0 17.1)"/><use xlink:href="#i" transform="matrix(1,0,0,1,1385,446.5) translate(0 17.1)"/><path d="M1240 516.94a5 5 0 0 1 5-5h249.5a5 5 0 0 1 5 5v94a5 5 0 0 1-5 5H1245a5 5 0 0 1-5-5z" fill="#fff"/><path d="M1240 551.94v-35a5 5 0 0 1 5-5h249.5a5 5 0 0 1 5 5v35" fill="#b8f5ed"/><path d="M1240 516.94a5 5 0 0 1 5-5h249.5a5 5 0 0 1 5 5v94a5 5 0 0 1-5 5H1245a5 5 0 0 1-5-5zM1240 551.94h259.5M1378.28 551.94v64" stroke="#282c33" fill="none"/><use xlink:href="#o" transform="matrix(1,0,0,1,1250,511.94173510107134) translate(0 23.6)"/><use xlink:href="#b" transform="matrix(1,0,0,1,1245,554.4417351010713) translate(0 17.1)"/><use xlink:href="#c" transform="matrix(1,0,0,1,1383.2798345758615,554.4417351010713) translate(0 17.1)"/><use xlink:href="#k" transform="matrix(1,0,0,1,1245,586.4417351010713) translate(0 17.1)"/><use xlink:href="#i" transform="matrix(1,0,0,1,1383.2798345758615,586.4417351010713) translate(0 17.1)"/><path d="M320 451.94a16 16 0 0 1 16-16h251.23a16 16 0 0 1 16 16v148a16 16 0 0 1-16 16H336a16 16 0 0 1-16-16z" stroke="#4c535d" fill="#fff"/><path d="M380.87 509.86c0 7.2-5.84 13.04-13.04 13.04-7.2 0-13.05-5.84-13.05-13.04 0-7.2 5.84-13.05 13.05-13.05 7.2 0 13.04 5.85 13.04 13.06z" stroke="#000" stroke-opacity=".25" fill="#dedeff"/><path d="M380.87 544.64c0 7.2-5.84 13.04-13.04 13.04-7.2 0-13.05-5.84-13.05-13.04 0-7.2 5.84-13.05 13.05-13.05 7.2 0 13.04 5.83 13.04 13.04z" stroke="#000" stroke-opacity=".25" fill="#b8f5ed"/><path d="M380.87 579.42c0 7.2-5.84 13.04-13.04 13.04-7.2 0-13.05-5.84-13.05-13.04 0-7.2 5.84-13.04 13.05-13.04 7.2 0 13.04 5.84 13.04 13.04z" stroke="#000" stroke-opacity=".25" fill="#ffdda6"/><use xlink:href="#p" transform="matrix(1,0,0,1,354.7826086956522,462.02869162281047) translate(0 14.4)"/><use xlink:href="#q" transform="matrix(1,0,0,1,354.7826086956522,462.02869162281047) translate(84.85000000000001 14.4)"/><use xlink:href="#r" transform="matrix(1,0,0,1,393.9130434782609,496.81130031846266) translate(0 16.3)"/><use xlink:href="#s" transform="matrix(1,0,0,1,393.9130434782609,496.81130031846266) translate(32.62777777777778 16.3)"/><use xlink:href="#t" transform="matrix(1,0,0,1,393.9130434782609,496.81130031846266) translate(59.85 16.3)"/><use xlink:href="#u" transform="matrix(1,0,0,1,393.9130434782609,531.5939090141148) translate(0 16.3)"/><use xlink:href="#v" transform="matrix(1,0,0,1,393.9130434782609,566.376517709767) translate(0 16.3)"/><path d="M760 485a5 5 0 0 1 5-5h270a5 5 0 0 1 5 5v126a5 5 0 0 1-5 5H765a5 5 0 0 1-5-5z" fill="#fff"/><path d="M760 520v-35a5 5 0 0 1 5-5h270a5 5 0 0 1 5 5v35" fill="#b8f5ed"/><path d="M760 485a5 5 0 0 1 5-5h270a5 5 0 0 1 5 5v126a5 5 0 0 1-5 5H765a5 5 0 0 1-5-5zM760 520h280M900 520v96" stroke="#282c33" fill="none"/><use xlink:href="#w" transform="matrix(1,0,0,1,770,480) translate(0 23.6)"/><use xlink:href="#b" transform="matrix(1,0,0,1,765,522.5) translate(0 17.1)"/><use xlink:href="#x" transform="matrix(1,0,0,1,905,522.5) translate(0 17.1)"/><use xlink:href="#y" transform="matrix(1,0,0,1,905,522.5) translate(34 17.1)"/><use xlink:href="#z" transform="matrix(1,0,0,1,765,554.5) translate(0 17.1)"/><use xlink:href="#e" transform="matrix(1,0,0,1,905,554.5) translate(0 17.1)"/><use xlink:href="#A" transform="matrix(1,0,0,1,765,586.5) translate(0 17.1)"/><use xlink:href="#i" transform="matrix(1,0,0,1,905,586.5) translate(0 17.1)"/><path d="M1219.5 567.96h-157.98a.02.02 0 0 0-.02.02.02.02 0 0 1-.02.02h-1.57" stroke="#3a414a" fill="none"/><path d="M1219.5 557.96v20M1239.5 567.96h-20" stroke="#3a414a" fill="#fff"/><path d="M1040.72 558l20 10-20 10" stroke="#3a414a" fill="#fff" fill-opacity="0"/><path d="M1040.72 568h20" stroke="#3a414a" fill="#fff"/><path d="M320 139.2a5 5 0 0 1 5-5h270a5 5 0 0 1 5 5v222a5 5 0 0 1-5 5H325a5 5 0 0 1-5-5z" fill="#fff"/><path d="M320 174.2v-35a5 5 0 0 1 5-5h270a5 5 0 0 1 5 5v35" fill="#ffdda6"/><path d="M320 139.2a5 5 0 0 1 5-5h270a5 5 0 0 1 5 5v222a5 5 0 0 1-5 5H325a5 5 0 0 1-5-5zM320 174.2h280M460 174.2v192" stroke="#282c33" fill="none"/><use xlink:href="#B" transform="matrix(1,0,0,1,330,134.2143088041896) translate(0 23.6)"/><use xlink:href="#C" transform="matrix(1,0,0,1,325,176.7143088041896) translate(0 17.1)"/><use xlink:href="#e" transform="matrix(1,0,0,1,465,176.7143088041896) translate(0 17.1)"/><use xlink:href="#d" transform="matrix(1,0,0,1,325,208.7143088041896) translate(0 17.1)"/><use xlink:href="#e" transform="matrix(1,0,0,1,465,208.7143088041896) translate(0 17.1)"/><use xlink:href="#z" transform="matrix(1,0,0,1,325,240.7143088041896) translate(0 17.1)"/><use xlink:href="#e" transform="matrix(1,0,0,1,465,240.7143088041896) translate(0 17.1)"/><use xlink:href="#D" transform="matrix(1,0,0,1,325,272.7143088041896) translate(0 17.1)"/><use xlink:href="#e" transform="matrix(1,0,0,1,465,272.7143088041896) translate(0 17.1)"/><use xlink:href="#E" transform="matrix(1,0,0,1,325,304.7143088041896) translate(0 17.1)"/><use xlink:href="#F" transform="matrix(1,0,0,1,465,304.7143088041896) translate(0 17.1)"/><use xlink:href="#G" transform="matrix(1,0,0,1,325,336.7143088041896) translate(0 17.1)"/><use xlink:href="#H" transform="matrix(1,0,0,1,465,336.7143088041896) translate(0 17.1)"/><use xlink:href="#I" transform="matrix(1,0,0,1,465,336.7143088041896) translate(44.2 17.1)"/><path d="M739.5 190h-59.4a.1.1 0 0 0-.1.1.1.1 0 0 1-.1.1h-60" stroke="#3a414a" fill="none"/><path d="M739.5 180v20M759.5 190h-20" stroke="#3a414a" fill="#fff"/><path d="M600.72 180.2l20 10-20 10" stroke="#3a414a" fill="#fff" fill-opacity="0"/><path d="M600.72 190.2h20" stroke="#3a414a" fill="#fff"/><path d="M1219.5 395.96h-488a12 12 0 0 1-12-12V234.1a12 12 0 0 0-12-12h-87.6" stroke="#3a414a" fill="none"/><path d="M1219.5 385.96v20M1239.5 395.96h-20" stroke="#3a414a" fill="#fff"/><path d="M600.72 212.1l20 10-20 10" stroke="#3a414a" fill="#fff" fill-opacity="0"/><path d="M600.72 222.1h20" stroke="#3a414a" fill="#fff"/><path d="M1219.5 567.96H1192a12 12 0 0 1-12-12V452a12 12 0 0 0-12-12H692a12 12 0 0 1-12-12V266.23a12 12 0 0 0-12-12h-48.1" stroke="#3a414a" fill="none"/><path d="M1219.5 557.96v20M1239.5 567.96h-20" stroke="#3a414a" fill="#fff"/><path d="M600.72 244.23l20 10-20 10" stroke="#3a414a" fill="#fff" fill-opacity="0"/><path d="M600.72 254.23h20" stroke="#3a414a" fill="#fff"/><path d="M739.5 536H652a12 12 0 0 1-12-12V299a12 12 0 0 0-12-12h-8.1" stroke="#3a414a" fill="none"/><path d="M739.5 526v20M759.5 536h-20" stroke="#3a414a" fill="#fff"/><path d="M600.72 277l20 10-20 10" stroke="#3a414a" fill="#fff" fill-opacity="0"/><path d="M600.72 287h20" stroke="#3a414a" fill="#fff"/><path d="M1219.5 395.96H1152a12 12 0 0 0-12 12V435c-2.76 0-5 2.24-5 5s2.24 5 5 5v79a12 12 0 0 1-12 12h-68.1" stroke="#3a414a" fill="none"/><path d="M1219.5 385.96v20M1239.5 395.96h-20" stroke="#3a414a" fill="#fff"/><path d="M1040.72 526l20 10-20 10" stroke="#3a414a" fill="#fff" fill-opacity="0"/><path d="M1040.72 536h20" stroke="#3a414a" fill="#fff"/><defs><path fill="#333" d="M212-179c-10-28-35-45-73-45-59 0-87 40-87 99 0 60 29 101 89 101 43 0 62-24 78-52l27 14C228-24 195 4 139 4 59 4 22-46 18-125c-6-104 99-153 187-111 19 9 31 26 39 46" id="J"/><path fill="#333" d="M141-36C126-15 110 5 73 4 37 3 15-17 15-53c-1-64 63-63 125-63 3-35-9-54-41-54-24 1-41 7-42 31l-33-3c5-37 33-52 76-52 45 0 72 20 72 64v82c-1 20 7 32 28 27v20c-31 9-61-2-59-35zM48-53c0 20 12 33 32 33 41-3 63-29 60-74-43 2-92-5-92 41" id="K"/><path fill="#333" d="M59-47c-2 24 18 29 38 22v24C64 9 27 4 27-40v-127H5v-23h24l9-43h21v43h35v23H59v120" id="L"/><g id="a"><use transform="matrix(0.05,0,0,0.05,0,0)" xlink:href="#J"/><use transform="matrix(0.05,0,0,0.05,12.950000000000001,0)" xlink:href="#K"/><use transform="matrix(0.05,0,0,0.05,22.950000000000003,0)" xlink:href="#L"/></g><path fill="#333" d="M24-231v-30h32v30H24zM24 0v-190h32V0H24" id="M"/><path fill="#333" d="M85-194c31 0 48 13 60 33l-1-100h32l1 261h-30c-2-10 0-23-3-31C134-8 116 4 85 4 32 4 16-35 15-94c0-66 23-100 70-100zm9 24c-40 0-46 34-46 75 0 40 6 74 45 74 42 0 51-32 51-76 0-42-9-74-50-73" id="N"/><g id="b"><use transform="matrix(0.05,0,0,0.05,0,0)" xlink:href="#M"/><use transform="matrix(0.05,0,0,0.05,3.95,0)" xlink:href="#N"/></g><path fill="#333" d="M30-248c87 1 191-15 191 75 0 78-77 80-158 76V0H30v-248zm33 125c57 0 124 11 124-50 0-59-68-47-124-48v98" id="O"/><path fill="#333" d="M194 0L95-120 63-95V0H30v-248h33v124l119-124h40L117-140 236 0h-42" id="P"/><g id="c"><use transform="matrix(0.05,0,0,0.05,0,0)" xlink:href="#O"/><use transform="matrix(0.05,0,0,0.05,12,0)" xlink:href="#P"/></g><path fill="#333" d="M100-194c62-1 85 37 85 99 1 63-27 99-86 99S16-35 15-95c0-66 28-99 85-99zM99-20c44 1 53-31 53-75 0-43-8-75-51-75s-53 32-53 75 10 74 51 75" id="Q"/><path fill="#333" d="M206 0h-36l-40-164L89 0H53L-1-190h32L70-26l43-164h34l41 164 42-164h31" id="R"/><path fill="#333" d="M117-194c89-4 53 116 60 194h-32v-121c0-31-8-49-39-48C34-167 62-67 57 0H25l-1-190h30c1 10-1 24 2 32 11-22 29-35 61-36" id="S"/><path fill="#333" d="M100-194c63 0 86 42 84 106H49c0 40 14 67 53 68 26 1 43-12 49-29l28 8c-11 28-37 45-77 45C44 4 14-33 15-96c1-61 26-98 85-98zm52 81c6-60-76-77-97-28-3 7-6 17-6 28h103" id="T"/><path fill="#333" d="M114-163C36-179 61-72 57 0H25l-1-190h30c1 12-1 29 2 39 6-27 23-49 58-41v29" id="U"/><path fill="#333" d="M-5 72V49h209v23H-5" id="V"/><g id="d"><use transform="matrix(0.05,0,0,0.05,0,0)" xlink:href="#Q"/><use transform="matrix(0.05,0,0,0.05,10,0)" xlink:href="#R"/><use transform="matrix(0.05,0,0,0.05,22.950000000000003,0)" xlink:href="#S"/><use transform="matrix(0.05,0,0,0.05,32.95,0)" xlink:href="#T"/><use transform="matrix(0.05,0,0,0.05,42.95,0)" xlink:href="#U"/><use transform="matrix(0.05,0,0,0.05,48.900000000000006,0)" xlink:href="#V"/><use transform="matrix(0.05,0,0,0.05,58.900000000000006,0)" xlink:href="#M"/><use transform="matrix(0.05,0,0,0.05,62.85,0)" xlink:href="#N"/></g><path fill="#333" d="M63-220v92h138v28H63V0H30v-248h175v28H63" id="W"/><g id="e"><use transform="matrix(0.05,0,0,0.05,0,0)" xlink:href="#W"/><use transform="matrix(0.05,0,0,0.05,10.950000000000001,0)" xlink:href="#P"/></g><path fill="#333" d="M177-190C167-65 218 103 67 71c-23-6-38-20-44-43l32-5c15 47 100 32 89-28v-30C133-14 115 1 83 1 29 1 15-40 15-95c0-56 16-97 71-98 29-1 48 16 59 35 1-10 0-23 2-32h30zM94-22c36 0 50-32 50-73 0-42-14-75-50-75-39 0-46 34-46 75s6 73 46 73" id="X"/><g id="f"><use transform="matrix(0.05,0,0,0.05,0,0)" xlink:href="#K"/><use transform="matrix(0.05,0,0,0.05,10,0)" xlink:href="#X"/><use transform="matrix(0.05,0,0,0.05,20,0)" xlink:href="#T"/></g><path fill="#333" d="M33 0v-248h34V0H33" id="Y"/><g id="g"><use transform="matrix(0.05,0,0,0.05,0,0)" xlink:href="#Y"/><use transform="matrix(0.05,0,0,0.05,5,0)" xlink:href="#S"/><use transform="matrix(0.05,0,0,0.05,15,0)" xlink:href="#L"/><use transform="matrix(0.05,0,0,0.05,20,0)" xlink:href="#T"/><use transform="matrix(0.05,0,0,0.05,30,0)" xlink:href="#X"/><use transform="matrix(0.05,0,0,0.05,40,0)" xlink:href="#T"/><use transform="matrix(0.05,0,0,0.05,50,0)" xlink:href="#U"/></g><path fill="#333" d="M96-169c-40 0-48 33-48 73s9 75 48 75c24 0 41-14 43-38l32 2c-6 37-31 61-74 61-59 0-76-41-82-99-10-93 101-131 147-64 4 7 5 14 7 22l-32 3c-4-21-16-35-41-35" id="Z"/><path fill="#333" d="M24 0v-261h32V0H24" id="aa"/><g id="h"><use transform="matrix(0.05,0,0,0.05,0,0)" xlink:href="#Z"/><use transform="matrix(0.05,0,0,0.05,9,0)" xlink:href="#Q"/><use transform="matrix(0.05,0,0,0.05,19,0)" xlink:href="#aa"/><use transform="matrix(0.05,0,0,0.05,22.95,0)" xlink:href="#Q"/><use transform="matrix(0.05,0,0,0.05,32.95,0)" xlink:href="#U"/></g><path fill="#333" d="M185-189c-5-48-123-54-124 2 14 75 158 14 163 119 3 78-121 87-175 55-17-10-28-26-33-46l33-7c5 56 141 63 141-1 0-78-155-14-162-118-5-82 145-84 179-34 5 7 8 16 11 25" id="ab"/><g id="i"><use transform="matrix(0.05,0,0,0.05,0,0)" xlink:href="#ab"/><use transform="matrix(0.05,0,0,0.05,12,0)" xlink:href="#L"/><use transform="matrix(0.05,0,0,0.05,17,0)" xlink:href="#U"/><use transform="matrix(0.05,0,0,0.05,22.95,0)" xlink:href="#M"/><use transform="matrix(0.05,0,0,0.05,26.899999999999995,0)" xlink:href="#S"/><use transform="matrix(0.05,0,0,0.05,36.9,0)" xlink:href="#X"/></g><path fill="#333" d="M108 0H70L1-190h34L89-25l56-165h34" id="ac"/><path fill="#333" d="M135-143c-3-34-86-38-87 0 15 53 115 12 119 90S17 21 10-45l28-5c4 36 97 45 98 0-10-56-113-15-118-90-4-57 82-63 122-42 12 7 21 19 24 35" id="ad"/><g id="j"><use transform="matrix(0.05,0,0,0.05,0,0)" xlink:href="#aa"/><use transform="matrix(0.05,0,0,0.05,3.95,0)" xlink:href="#M"/><use transform="matrix(0.05,0,0,0.05,7.9,0)" xlink:href="#ac"/><use transform="matrix(0.05,0,0,0.05,16.9,0)" xlink:href="#T"/><use transform="matrix(0.05,0,0,0.05,26.899999999999995,0)" xlink:href="#ad"/></g><path fill="#333" d="M210-169c-67 3-38 105-44 169h-31v-121c0-29-5-50-35-48C34-165 62-65 56 0H25l-1-190h30c1 10-1 24 2 32 10-44 99-50 107 0 11-21 27-35 58-36 85-2 47 119 55 194h-31v-121c0-29-5-49-35-48" id="ae"/><g id="k"><use transform="matrix(0.05,0,0,0.05,0,0)" xlink:href="#S"/><use transform="matrix(0.05,0,0,0.05,10,0)" xlink:href="#K"/><use transform="matrix(0.05,0,0,0.05,20,0)" xlink:href="#ae"/><use transform="matrix(0.05,0,0,0.05,34.95,0)" xlink:href="#T"/></g><g id="l"><use transform="matrix(0.05,0,0,0.05,0,0)" xlink:href="#O"/><use transform="matrix(0.05,0,0,0.05,12,0)" xlink:href="#T"/><use transform="matrix(0.05,0,0,0.05,22,0)" xlink:href="#U"/><use transform="matrix(0.05,0,0,0.05,27.950000000000003,0)" xlink:href="#ad"/><use transform="matrix(0.05,0,0,0.05,36.95,0)" xlink:href="#Q"/><use transform="matrix(0.05,0,0,0.05,46.95,0)" xlink:href="#S"/></g><g id="m"><use transform="matrix(0.05,0,0,0.05,0,0)" xlink:href="#X"/><use transform="matrix(0.05,0,0,0.05,10,0)" xlink:href="#M"/><use transform="matrix(0.05,0,0,0.05,13.949999999999998,0)" xlink:href="#ac"/><use transform="matrix(0.05,0,0,0.05,22.95,0)" xlink:href="#T"/><use transform="matrix(0.05,0,0,0.05,32.95,0)" xlink:href="#S"/><use transform="matrix(0.05,0,0,0.05,42.95,0)" xlink:href="#V"/><use transform="matrix(0.05,0,0,0.05,52.95,0)" xlink:href="#S"/><use transform="matrix(0.05,0,0,0.05,62.95,0)" xlink:href="#K"/><use transform="matrix(0.05,0,0,0.05,72.95,0)" xlink:href="#ae"/><use transform="matrix(0.05,0,0,0.05,87.9,0)" xlink:href="#T"/></g><path fill="#333" d="M84 4C-5 8 30-112 23-190h32v120c0 31 7 50 39 49 72-2 45-101 50-169h31l1 190h-30c-1-10 1-25-2-33-11 22-28 36-60 37" id="af"/><g id="n"><use transform="matrix(0.05,0,0,0.05,0,0)" xlink:href="#ad"/><use transform="matrix(0.05,0,0,0.05,9,0)" xlink:href="#af"/><use transform="matrix(0.05,0,0,0.05,19,0)" xlink:href="#U"/><use transform="matrix(0.05,0,0,0.05,24.95,0)" xlink:href="#S"/><use transform="matrix(0.05,0,0,0.05,34.95,0)" xlink:href="#K"/><use transform="matrix(0.05,0,0,0.05,44.95,0)" xlink:href="#ae"/><use transform="matrix(0.05,0,0,0.05,59.900000000000006,0)" xlink:href="#T"/></g><g id="o"><use transform="matrix(0.05,0,0,0.05,0,0)" xlink:href="#J"/><use transform="matrix(0.05,0,0,0.05,12.950000000000001,0)" xlink:href="#aa"/><use transform="matrix(0.05,0,0,0.05,16.900000000000002,0)" xlink:href="#M"/><use transform="matrix(0.05,0,0,0.05,20.85,0)" xlink:href="#S"/><use transform="matrix(0.05,0,0,0.05,30.85,0)" xlink:href="#M"/><use transform="matrix(0.05,0,0,0.05,34.800000000000004,0)" xlink:href="#Z"/></g><path d="M24-248c120-7 223 5 221 122C244-46 201 0 124 0H24v-248zM76-40c74 7 117-18 117-86 0-67-45-88-117-82v168" id="ag"/><path d="M133-34C117-15 103 5 69 4 32 3 11-16 11-54c-1-60 55-63 116-61 1-26-3-47-28-47-18 1-26 9-28 27l-52-2c7-38 36-58 82-57s74 22 75 68l1 82c-1 14 12 18 25 15v27c-30 8-71 5-69-32zm-48 3c29 0 43-24 42-57-32 0-66-3-65 30 0 17 8 27 23 27" id="ah"/><path d="M115-3C79 11 28 4 28-45v-112H4v-33h27l15-45h31v45h36v33H77v99c-1 23 16 31 38 25v30" id="ai"/><path d="M135-194c52 0 70 43 70 98 0 56-19 99-73 100-30 1-46-15-58-35L72 0H24l1-261h50v104c11-23 29-37 60-37zM114-30c31 0 40-27 40-66 0-37-7-63-39-63s-41 28-41 65c0 36 8 64 40 64" id="aj"/><path d="M137-138c1-29-70-34-71-4 15 46 118 7 119 86 1 83-164 76-172 9l43-7c4 19 20 25 44 25 33 8 57-30 24-41C81-84 22-81 20-136c-2-80 154-74 161-7" id="ak"/><path d="M185-48c-13 30-37 53-82 52C43 2 14-33 14-96s30-98 90-98c62 0 83 45 84 108H66c0 31 8 55 39 56 18 0 30-7 34-22zm-45-69c5-46-57-63-70-21-2 6-4 13-4 21h74" id="al"/><g id="p"><use transform="matrix(0.05,0,0,0.05,0,0)" xlink:href="#ag"/><use transform="matrix(0.05,0,0,0.05,12.950000000000001,0)" xlink:href="#ah"/><use transform="matrix(0.05,0,0,0.05,22.950000000000003,0)" xlink:href="#ai"/><use transform="matrix(0.05,0,0,0.05,28.900000000000002,0)" xlink:href="#ah"/><use transform="matrix(0.05,0,0,0.05,38.900000000000006,0)" xlink:href="#aj"/><use transform="matrix(0.05,0,0,0.05,49.85000000000001,0)" xlink:href="#ah"/><use transform="matrix(0.05,0,0,0.05,59.85,0)" xlink:href="#ak"/><use transform="matrix(0.05,0,0,0.05,69.85000000000001,0)" xlink:href="#al"/></g><path d="M114-157C55-157 80-60 75 0H25v-261h50l-1 109c12-26 28-41 61-42 86-1 58 113 63 194h-50c-7-57 23-157-34-157" id="am"/><path d="M135-194c53 0 70 44 70 98 0 56-19 98-73 100-31 1-45-17-59-34 3 33 2 69 2 105H25l-1-265h48c2 10 0 23 3 31 11-24 29-35 60-35zM114-30c33 0 39-31 40-66 0-38-9-64-40-64-56 0-55 130 0 130" id="an"/><g id="q"><use transform="matrix(0.05,0,0,0.05,0,0)" xlink:href="#ak"/><use transform="matrix(0.05,0,0,0.05,10,0)" xlink:href="#am"/><use transform="matrix(0.05,0,0,0.05,20.950000000000003,0)" xlink:href="#ah"/><use transform="matrix(0.05,0,0,0.05,30.950000000000003,0)" xlink:href="#an"/><use transform="matrix(0.05,0,0,0.05,41.900000000000006,0)" xlink:href="#al"/><use transform="matrix(0.05,0,0,0.05,51.900000000000006,0)" xlink:href="#ak"/></g><path d="M212-179c-10-28-35-45-73-45-59 0-87 40-87 99 0 60 29 101 89 101 43 0 62-24 78-52l27 14C228-24 195 4 139 4 59 4 22-46 18-125c-6-104 99-153 187-111 19 9 31 26 39 46" id="ao"/><path d="M141-36C126-15 110 5 73 4 37 3 15-17 15-53c-1-64 63-63 125-63 3-35-9-54-41-54-24 1-41 7-42 31l-33-3c5-37 33-52 76-52 45 0 72 20 72 64v82c-1 20 7 32 28 27v20c-31 9-61-2-59-35zM48-53c0 20 12 33 32 33 41-3 63-29 60-74-43 2-92-5-92 41" id="ap"/><path d="M59-47c-2 24 18 29 38 22v24C64 9 27 4 27-40v-127H5v-23h24l9-43h21v43h35v23H59v120" id="aq"/><path d="M135-143c-3-34-86-38-87 0 15 53 115 12 119 90S17 21 10-45l28-5c4 36 97 45 98 0-10-56-113-15-118-90-4-57 82-63 122-42 12 7 21 19 24 35" id="ar"/><g id="r"><use transform="matrix(0.03888888888888889,0,0,0.03888888888888889,0,0)" xlink:href="#ao"/><use transform="matrix(0.03888888888888889,0,0,0.03888888888888889,10.072222222222223,0)" xlink:href="#ap"/><use transform="matrix(0.03888888888888889,0,0,0.03888888888888889,17.85,0)" xlink:href="#aq"/><use transform="matrix(0.03888888888888889,0,0,0.03888888888888889,21.73888888888889,0)" xlink:href="#ar"/></g><path d="M117-194c89-4 53 116 60 194h-32v-121c0-31-8-49-39-48C34-167 62-67 57 0H25l-1-190h30c1 10-1 24 2 32 11-22 29-35 61-36" id="as"/><path d="M85-194c31 0 48 13 60 33l-1-100h32l1 261h-30c-2-10 0-23-3-31C134-8 116 4 85 4 32 4 16-35 15-94c0-66 23-100 70-100zm9 24c-40 0-46 34-46 75 0 40 6 74 45 74 42 0 51-32 51-76 0-42-9-74-50-73" id="at"/><g id="s"><use transform="matrix(0.03888888888888889,0,0,0.03888888888888889,0,0)" xlink:href="#ap"/><use transform="matrix(0.03888888888888889,0,0,0.03888888888888889,7.777777777777778,0)" xlink:href="#as"/><use transform="matrix(0.03888888888888889,0,0,0.03888888888888889,15.555555555555555,0)" xlink:href="#at"/></g><path d="M100-194c62-1 85 37 85 99 1 63-27 99-86 99S16-35 15-95c0-66 28-99 85-99zM99-20c44 1 53-31 53-75 0-43-8-75-51-75s-53 32-53 75 10 74 51 75" id="au"/><path d="M206 0h-36l-40-164L89 0H53L-1-190h32L70-26l43-164h34l41 164 42-164h31" id="av"/><path d="M100-194c63 0 86 42 84 106H49c0 40 14 67 53 68 26 1 43-12 49-29l28 8c-11 28-37 45-77 45C44 4 14-33 15-96c1-61 26-98 85-98zm52 81c6-60-76-77-97-28-3 7-6 17-6 28h103" id="aw"/><path d="M114-163C36-179 61-72 57 0H25l-1-190h30c1 12-1 29 2 39 6-27 23-49 58-41v29" id="ax"/><g id="t"><use transform="matrix(0.03888888888888889,0,0,0.03888888888888889,0,0)" xlink:href="#au"/><use transform="matrix(0.03888888888888889,0,0,0.03888888888888889,7.777777777777778,0)" xlink:href="#av"/><use transform="matrix(0.03888888888888889,0,0,0.03888888888888889,17.85,0)" xlink:href="#as"/><use transform="matrix(0.03888888888888889,0,0,0.03888888888888889,25.627777777777776,0)" xlink:href="#aw"/><use transform="matrix(0.03888888888888889,0,0,0.03888888888888889,33.40555555555556,0)" xlink:href="#ax"/><use transform="matrix(0.03888888888888889,0,0,0.03888888888888889,38.03333333333334,0)" xlink:href="#ar"/></g><path d="M137 0h-34L2-248h35l83 218 83-218h36" id="ay"/><path d="M24-231v-30h32v30H24zM24 0v-190h32V0H24" id="az"/><path d="M179-190L93 31C79 59 56 82 12 73V49c39 6 53-20 64-50L1-190h34L92-34l54-156h33" id="aA"/><g id="u"><use transform="matrix(0.03888888888888889,0,0,0.03888888888888889,0,0)" xlink:href="#ay"/><use transform="matrix(0.03888888888888889,0,0,0.03888888888888889,8.555555555555555,0)" xlink:href="#aw"/><use transform="matrix(0.03888888888888889,0,0,0.03888888888888889,16.333333333333332,0)" xlink:href="#aq"/><use transform="matrix(0.03888888888888889,0,0,0.03888888888888889,20.22222222222222,0)" xlink:href="#aw"/><use transform="matrix(0.03888888888888889,0,0,0.03888888888888889,28,0)" xlink:href="#ax"/><use transform="matrix(0.03888888888888889,0,0,0.03888888888888889,32.62777777777778,0)" xlink:href="#az"/><use transform="matrix(0.03888888888888889,0,0,0.03888888888888889,35.7,0)" xlink:href="#as"/><use transform="matrix(0.03888888888888889,0,0,0.03888888888888889,43.47777777777778,0)" xlink:href="#ap"/><use transform="matrix(0.03888888888888889,0,0,0.03888888888888889,51.25555555555555,0)" xlink:href="#ax"/><use transform="matrix(0.03888888888888889,0,0,0.03888888888888889,55.88333333333334,0)" xlink:href="#aA"/></g><path d="M205 0l-28-72H64L36 0H1l101-248h38L239 0h-34zm-38-99l-47-123c-12 45-31 82-46 123h93" id="aB"/><path d="M115-194c55 1 70 41 70 98S169 2 115 4C84 4 66-9 55-30l1 105H24l-1-265h31l2 30c10-21 28-34 59-34zm-8 174c40 0 45-34 45-75s-6-73-45-74c-42 0-51 32-51 76 0 43 10 73 51 73" id="aC"/><path d="M210-169c-67 3-38 105-44 169h-31v-121c0-29-5-50-35-48C34-165 62-65 56 0H25l-1-190h30c1 10-1 24 2 32 10-44 99-50 107 0 11-21 27-35 58-36 85-2 47 119 55 194h-31v-121c0-29-5-49-35-48" id="aD"/><g id="v"><use transform="matrix(0.03888888888888889,0,0,0.03888888888888889,0,0)" xlink:href="#aB"/><use transform="matrix(0.03888888888888889,0,0,0.03888888888888889,9.333333333333334,0)" xlink:href="#aC"/><use transform="matrix(0.03888888888888889,0,0,0.03888888888888889,17.11111111111111,0)" xlink:href="#aC"/><use transform="matrix(0.03888888888888889,0,0,0.03888888888888889,24.88888888888889,0)" xlink:href="#au"/><use transform="matrix(0.03888888888888889,0,0,0.03888888888888889,32.666666666666664,0)" xlink:href="#az"/><use transform="matrix(0.03888888888888889,0,0,0.03888888888888889,35.73888888888889,0)" xlink:href="#as"/><use transform="matrix(0.03888888888888889,0,0,0.03888888888888889,43.516666666666666,0)" xlink:href="#aq"/><use transform="matrix(0.03888888888888889,0,0,0.03888888888888889,47.405555555555544,0)" xlink:href="#aD"/><use transform="matrix(0.03888888888888889,0,0,0.03888888888888889,59.03333333333333,0)" xlink:href="#aw"/><use transform="matrix(0.03888888888888889,0,0,0.03888888888888889,66.8111111111111,0)" xlink:href="#as"/><use transform="matrix(0.03888888888888889,0,0,0.03888888888888889,74.58888888888887,0)" xlink:href="#aq"/><use transform="matrix(0.03888888888888889,0,0,0.03888888888888889,78.47777777777776,0)" xlink:href="#ar"/></g><path fill="#333" d="M137 0h-34L2-248h35l83 218 83-218h36" id="aE"/><g id="w"><use transform="matrix(0.05,0,0,0.05,0,0)" xlink:href="#aE"/><use transform="matrix(0.05,0,0,0.05,11,0)" xlink:href="#T"/><use transform="matrix(0.05,0,0,0.05,21,0)" xlink:href="#L"/><use transform="matrix(0.05,0,0,0.05,26,0)" xlink:href="#T"/><use transform="matrix(0.05,0,0,0.05,36,0)" xlink:href="#U"/><use transform="matrix(0.05,0,0,0.05,41.95,0)" xlink:href="#M"/><use transform="matrix(0.05,0,0,0.05,45.900000000000006,0)" xlink:href="#S"/><use transform="matrix(0.05,0,0,0.05,55.900000000000006,0)" xlink:href="#K"/><use transform="matrix(0.05,0,0,0.05,65.9,0)" xlink:href="#U"/><use transform="matrix(0.05,0,0,0.05,71.85000000000001,0)" xlink:href="#M"/><use transform="matrix(0.05,0,0,0.05,75.80000000000001,0)" xlink:href="#K"/><use transform="matrix(0.05,0,0,0.05,85.80000000000001,0)" xlink:href="#S"/></g><path fill="#333" d="M68-38c1 34 0 65-14 84H32c9-13 17-26 17-46H33v-38h35" id="aF"/><g id="x"><use transform="matrix(0.05,0,0,0.05,0,0)" xlink:href="#O"/><use transform="matrix(0.05,0,0,0.05,12,0)" xlink:href="#P"/><use transform="matrix(0.05,0,0,0.05,24,0)" xlink:href="#aF"/></g><g id="y"><use transform="matrix(0.05,0,0,0.05,0,0)" xlink:href="#W"/><use transform="matrix(0.05,0,0,0.05,10.950000000000001,0)" xlink:href="#P"/></g><g id="z"><use transform="matrix(0.05,0,0,0.05,0,0)" xlink:href="#Z"/><use transform="matrix(0.05,0,0,0.05,9,0)" xlink:href="#aa"/><use transform="matrix(0.05,0,0,0.05,12.949999999999998,0)" xlink:href="#M"/><use transform="matrix(0.05,0,0,0.05,16.9,0)" xlink:href="#S"/><use transform="matrix(0.05,0,0,0.05,26.899999999999995,0)" xlink:href="#M"/><use transform="matrix(0.05,0,0,0.05,30.849999999999994,0)" xlink:href="#Z"/><use transform="matrix(0.05,0,0,0.05,39.849999999999994,0)" xlink:href="#V"/><use transform="matrix(0.05,0,0,0.05,49.849999999999994,0)" xlink:href="#M"/><use transform="matrix(0.05,0,0,0.05,53.79999999999999,0)" xlink:href="#N"/></g><path fill="#333" d="M115-194c53 0 69 39 70 98 0 66-23 100-70 100C84 3 66-7 56-30L54 0H23l1-261h32v101c10-23 28-34 59-34zm-8 174c40 0 45-34 45-75 0-40-5-75-45-74-42 0-51 32-51 76 0 43 10 73 51 73" id="aG"/><g id="A"><use transform="matrix(0.05,0,0,0.05,0,0)" xlink:href="#aa"/><use transform="matrix(0.05,0,0,0.05,3.95,0)" xlink:href="#M"/><use transform="matrix(0.05,0,0,0.05,7.9,0)" xlink:href="#Z"/><use transform="matrix(0.05,0,0,0.05,16.9,0)" xlink:href="#T"/><use transform="matrix(0.05,0,0,0.05,26.899999999999995,0)" xlink:href="#S"/><use transform="matrix(0.05,0,0,0.05,36.9,0)" xlink:href="#ad"/><use transform="matrix(0.05,0,0,0.05,45.9,0)" xlink:href="#T"/><use transform="matrix(0.05,0,0,0.05,55.900000000000006,0)" xlink:href="#V"/><use transform="matrix(0.05,0,0,0.05,65.9,0)" xlink:href="#S"/><use transform="matrix(0.05,0,0,0.05,75.9,0)" xlink:href="#af"/><use transform="matrix(0.05,0,0,0.05,85.9,0)" xlink:href="#ae"/><use transform="matrix(0.05,0,0,0.05,100.85000000000001,0)" xlink:href="#aG"/><use transform="matrix(0.05,0,0,0.05,110.85000000000001,0)" xlink:href="#T"/><use transform="matrix(0.05,0,0,0.05,120.85000000000001,0)" xlink:href="#U"/></g><path fill="#333" d="M205 0l-28-72H64L36 0H1l101-248h38L239 0h-34zm-38-99l-47-123c-12 45-31 82-46 123h93" id="aH"/><path fill="#333" d="M115-194c55 1 70 41 70 98S169 2 115 4C84 4 66-9 55-30l1 105H24l-1-265h31l2 30c10-21 28-34 59-34zm-8 174c40 0 45-34 45-75s-6-73-45-74c-42 0-51 32-51 76 0 43 10 73 51 73" id="aI"/><g id="B"><use transform="matrix(0.05,0,0,0.05,0,0)" xlink:href="#aH"/><use transform="matrix(0.05,0,0,0.05,12,0)" xlink:href="#aI"/><use transform="matrix(0.05,0,0,0.05,22,0)" xlink:href="#aI"/><use transform="matrix(0.05,0,0,0.05,32,0)" xlink:href="#Q"/><use transform="matrix(0.05,0,0,0.05,42,0)" xlink:href="#M"/><use transform="matrix(0.05,0,0,0.05,45.95,0)" xlink:href="#S"/><use transform="matrix(0.05,0,0,0.05,55.95,0)" xlink:href="#L"/><use transform="matrix(0.05,0,0,0.05,60.95,0)" xlink:href="#ae"/><use transform="matrix(0.05,0,0,0.05,75.9,0)" xlink:href="#T"/><use transform="matrix(0.05,0,0,0.05,85.9,0)" xlink:href="#S"/><use transform="matrix(0.05,0,0,0.05,95.9,0)" xlink:href="#L"/></g><g id="C"><use transform="matrix(0.05,0,0,0.05,0,0)" xlink:href="#Z"/><use transform="matrix(0.05,0,0,0.05,9,0)" xlink:href="#K"/><use transform="matrix(0.05,0,0,0.05,19,0)" xlink:href="#L"/><use transform="matrix(0.05,0,0,0.05,24,0)" xlink:href="#V"/><use transform="matrix(0.05,0,0,0.05,34,0)" xlink:href="#M"/><use transform="matrix(0.05,0,0,0.05,37.95,0)" xlink:href="#N"/></g><g id="D"><use transform="matrix(0.05,0,0,0.05,0,0)" xlink:href="#ac"/><use transform="matrix(0.05,0,0,0.05,9,0)" xlink:href="#T"/><use transform="matrix(0.05,0,0,0.05,19,0)" xlink:href="#L"/><use transform="matrix(0.05,0,0,0.05,24,0)" xlink:href="#T"/><use transform="matrix(0.05,0,0,0.05,34,0)" xlink:href="#U"/><use transform="matrix(0.05,0,0,0.05,39.95,0)" xlink:href="#M"/><use transform="matrix(0.05,0,0,0.05,43.900000000000006,0)" xlink:href="#S"/><use transform="matrix(0.05,0,0,0.05,53.900000000000006,0)" xlink:href="#K"/><use transform="matrix(0.05,0,0,0.05,63.900000000000006,0)" xlink:href="#U"/><use transform="matrix(0.05,0,0,0.05,69.85000000000001,0)" xlink:href="#M"/><use transform="matrix(0.05,0,0,0.05,73.80000000000001,0)" xlink:href="#K"/><use transform="matrix(0.05,0,0,0.05,83.80000000000001,0)" xlink:href="#S"/><use transform="matrix(0.05,0,0,0.05,93.80000000000001,0)" xlink:href="#V"/><use transform="matrix(0.05,0,0,0.05,103.80000000000001,0)" xlink:href="#M"/><use transform="matrix(0.05,0,0,0.05,107.75,0)" xlink:href="#N"/></g><g id="E"><use transform="matrix(0.05,0,0,0.05,0,0)" xlink:href="#ad"/><use transform="matrix(0.05,0,0,0.05,9,0)" xlink:href="#L"/><use transform="matrix(0.05,0,0,0.05,14,0)" xlink:href="#K"/><use transform="matrix(0.05,0,0,0.05,24,0)" xlink:href="#U"/><use transform="matrix(0.05,0,0,0.05,29.950000000000003,0)" xlink:href="#L"/></g><path fill="#333" d="M30-248c118-7 216 8 213 122C240-48 200 0 122 0H30v-248zM63-27c89 8 146-16 146-99s-60-101-146-95v194" id="aJ"/><g id="F"><use transform="matrix(0.05,0,0,0.05,0,0)" xlink:href="#aJ"/><use transform="matrix(0.05,0,0,0.05,12.950000000000001,0)" xlink:href="#K"/><use transform="matrix(0.05,0,0,0.05,22.950000000000003,0)" xlink:href="#L"/><use transform="matrix(0.05,0,0,0.05,27.950000000000003,0)" xlink:href="#T"/><use transform="matrix(0.05,0,0,0.05,37.95,0)" xlink:href="#L"/><use transform="matrix(0.05,0,0,0.05,42.95,0)" xlink:href="#M"/><use transform="matrix(0.05,0,0,0.05,46.900000000000006,0)" xlink:href="#ae"/><use transform="matrix(0.05,0,0,0.05,61.85,0)" xlink:href="#T"/></g><g id="G"><use transform="matrix(0.05,0,0,0.05,0,0)" xlink:href="#N"/><use transform="matrix(0.05,0,0,0.05,10,0)" xlink:href="#af"/><use transform="matrix(0.05,0,0,0.05,20,0)" xlink:href="#U"/><use transform="matrix(0.05,0,0,0.05,25.950000000000003,0)" xlink:href="#K"/><use transform="matrix(0.05,0,0,0.05,35.95,0)" xlink:href="#L"/><use transform="matrix(0.05,0,0,0.05,40.95,0)" xlink:href="#M"/><use transform="matrix(0.05,0,0,0.05,44.900000000000006,0)" xlink:href="#Q"/><use transform="matrix(0.05,0,0,0.05,54.900000000000006,0)" xlink:href="#S"/></g><path fill="#333" d="M127-220V0H93v-220H8v-28h204v28h-85" id="aK"/><g id="H"><use transform="matrix(0.05,0,0,0.05,0,0)" xlink:href="#aK"/><use transform="matrix(0.05,0,0,0.05,10.3,0)" xlink:href="#M"/><use transform="matrix(0.05,0,0,0.05,14.25,0)" xlink:href="#ae"/><use transform="matrix(0.05,0,0,0.05,29.200000000000003,0)" xlink:href="#T"/></g><g id="I"><use transform="matrix(0.05,0,0,0.05,0,0)" xlink:href="#aJ"/><use transform="matrix(0.05,0,0,0.05,12.950000000000001,0)" xlink:href="#T"/><use transform="matrix(0.05,0,0,0.05,22.950000000000003,0)" xlink:href="#aa"/><use transform="matrix(0.05,0,0,0.05,26.900000000000002,0)" xlink:href="#L"/><use transform="matrix(0.05,0,0,0.05,31.900000000000002,0)" xlink:href="#K"/></g></defs></g></svg>